<?xml version="1.0" encoding="UTF-8"?>
<svg width="1548px" height="364px" viewBox="0 0 1548 364" version="1.1" xmlns="http://www.w3.org/2000/svg" xmlns:xlink="http://www.w3.org/1999/xlink">
    <!-- Generator: Sketch 43.1 (39012) - http://www.bohemiancoding.com/sketch -->
    <title>Group</title>
    <desc>Created with Sketch.</desc>
    <defs></defs>
    <g id="Home" stroke="none" stroke-width="1" fill="none" fill-rule="evenodd">
        <g id="Login" transform="translate(-172.000000, -298.000000)">
            <g id="Group" transform="translate(172.000000, 297.000000)">
                <path d="M422.154773,17.4101562 L422.154773,184.723145 C422.154773,204.709247 420.759116,219.61486 417.967761,229.44043 C415.176406,240.60585 410.431174,250.040489 403.731921,257.744629 C390.66838,273.041255 373.362238,280.689453 351.812976,280.689453 C335.511462,280.689453 320.270892,276.446657 306.090808,267.960938 L325.183582,234.632324 C334.674189,240.996614 343.550565,244.178711 351.812976,244.178711 C363.425013,244.178711 371.463996,239.768436 375.930164,230.947754 C380.61964,222.127072 382.964343,206.719023 382.964343,184.723145 L382.964343,17.4101562 L422.154773,17.4101562 Z M614.027341,203.313477 L497.125974,203.313477 C498.130862,216.711981 502.48531,227.374798 510.189451,235.302246 C517.893591,243.11804 527.774839,247.025879 539.833494,247.025879 C549.212447,247.025879 556.972297,244.792828 563.113279,240.32666 C569.142606,235.860492 576.009236,227.598205 583.713376,215.539551 L615.534665,233.29248 C610.62188,241.666546 605.430038,248.840221 599.958982,254.813721 C594.487926,260.787221 588.626168,265.699932 582.373533,269.552002 C576.120897,273.404072 569.365919,276.223298 562.108396,278.009766 C554.850873,279.796233 546.979369,280.689453 538.49365,280.689453 C514.153033,280.689453 494.613841,272.873776 479.875486,257.242188 C465.137131,241.498945 457.768064,220.619922 457.768064,194.604492 C457.768064,168.812371 464.913826,147.933348 479.205564,131.966797 C493.608956,116.223554 512.701539,108.352051 536.483884,108.352051 C560.489538,108.352051 579.470468,116.000249 593.427244,131.296875 C607.272365,146.481847 614.194822,167.528349 614.194822,194.437012 L614.027341,203.313477 Z M575.339353,172.49707 C570.091605,152.399314 557.419043,142.350586 537.321286,142.350586 C532.743464,142.350586 528.444842,143.048414 524.42529,144.444092 C520.405739,145.839769 516.749119,147.849515 513.45532,150.473389 C510.161521,153.097262 507.342294,156.251446 504.997556,159.936035 C502.652818,163.620624 500.866377,167.807594 499.638181,172.49707 L575.339353,172.49707 Z M685.648933,148.044922 L685.648933,276 L647.965827,276 L647.965827,148.044922 L631.887702,148.044922 L631.887702,112.874023 L647.965827,112.874023 L647.965827,53.0834961 L685.648933,53.0834961 L685.648933,112.874023 L714.958015,112.874023 L714.958015,148.044922 L685.648933,148.044922 Z M823.927751,140.675781 L792.776384,157.256348 C787.863599,147.207469 781.778536,142.183105 774.521013,142.183105 C771.059732,142.183105 768.10094,143.327544 765.644548,145.616455 C763.188155,147.905366 761.959977,150.836245 761.959977,154.40918 C761.959977,160.661815 769.217392,166.85853 783.732438,172.999512 C803.718541,181.596885 817.172671,189.524215 824.095231,196.781738 C831.017792,204.039262 834.47902,213.808858 834.47902,226.09082 C834.47902,241.834063 828.673089,255.009062 817.061052,265.616211 C805.783977,275.665089 792.162368,280.689453 776.195817,280.689453 C748.840537,280.689453 729.468823,267.346976 718.080095,240.661621 L750.236345,225.755859 C754.702513,233.571654 758.107915,238.540191 760.452653,240.661621 C765.030476,244.904481 770.50145,247.025879 776.865739,247.025879 C789.594318,247.025879 795.958513,241.219947 795.958513,229.60791 C795.958513,222.908658 791.045801,216.656116 781.220231,210.850098 C777.423988,208.951976 773.627802,207.109709 769.831559,205.323242 C766.035317,203.536775 762.183304,201.694508 758.275407,199.796387 C747.333295,194.436985 739.629271,189.077664 735.163102,183.718262 C729.468738,176.907355 726.621599,168.142632 726.621599,157.423828 C726.621599,143.243744 731.478484,131.520229 741.192399,122.25293 C751.129623,112.985631 763.188097,108.352051 777.368181,108.352051 C798.247517,108.352051 813.767218,119.12652 823.927751,140.675781 Z M983.811549,119.908203 L983.811549,169.984863 C975.214176,159.489368 967.510151,152.28778 960.699245,148.379883 C953.999993,144.360331 946.128489,142.350586 937.084499,142.350586 C922.904415,142.350586 911.125073,147.319123 901.74612,157.256348 C892.367167,167.193572 887.67776,179.642829 887.67776,194.604492 C887.67776,209.901118 892.199688,222.462028 901.243678,232.287598 C910.399323,242.113168 922.067012,247.025879 936.247096,247.025879 C945.291087,247.025879 953.274243,245.07196 960.196803,241.164062 C966.896056,237.36782 974.767559,229.998753 983.811549,219.056641 L983.811549,268.79834 C968.514924,276.725788 953.218527,280.689453 937.921901,280.689453 C912.688051,280.689453 891.585723,272.538818 874.614284,256.237305 C857.642845,239.824137 849.157253,219.44755 849.157253,195.106934 C849.157253,170.766317 857.754497,150.222252 874.949245,133.474121 C892.143992,116.72599 913.24632,108.352051 938.256862,108.352051 C954.335067,108.352051 969.519811,112.204063 983.811549,119.908203 Z M1129.12455,112.874023 L1166.97513,112.874023 L1166.97513,276 L1129.12455,276 L1129.12455,258.916992 C1113.60461,273.432039 1096.91256,280.689453 1079.04789,280.689453 C1056.49374,280.689453 1037.84777,272.538818 1023.10941,256.237305 C1008.48271,239.600828 1001.16947,218.833458 1001.16947,193.93457 C1001.16947,169.4823 1008.48271,149.105713 1023.10941,132.804199 C1037.73611,116.502685 1056.04713,108.352051 1078.043,108.352051 C1097.02422,108.352051 1114.05123,116.167728 1129.12455,131.799316 L1129.12455,112.874023 Z M1039.68998,193.93457 C1039.68998,209.566159 1043.87695,222.294547 1052.25101,232.120117 C1060.84839,242.057341 1071.67868,247.025879 1084.74222,247.025879 C1098.699,247.025879 1109.9759,242.22482 1118.57328,232.622559 C1127.17065,222.685334 1131.46927,210.068599 1131.46927,194.771973 C1131.46927,179.475347 1127.17065,166.858611 1118.57328,156.921387 C1109.9759,147.207471 1098.81065,142.350586 1085.07718,142.350586 C1072.1253,142.350586 1061.295,147.263297 1052.58597,157.088867 C1043.9886,167.026091 1039.68998,179.30787 1039.68998,193.93457 Z M1240.77397,364.764648 L1203.09087,364.764648 L1203.09087,112.874023 L1240.77397,112.874023 L1240.77397,130.626953 C1255.62398,115.776944 1272.48351,108.352051 1291.35307,108.352051 C1313.79557,108.352051 1332.27406,116.614338 1346.78911,133.13916 C1361.52746,149.552328 1368.89653,170.263872 1368.89653,195.274414 C1368.89653,219.726685 1361.58329,240.103271 1346.95659,256.404785 C1332.44154,272.594645 1314.13053,280.689453 1292.02299,280.689453 C1272.93013,280.689453 1255.84729,273.041255 1240.77397,257.744629 L1240.77397,364.764648 Z M1330.37602,195.441895 C1330.37602,179.810306 1326.13323,167.081918 1317.64751,157.256348 C1309.05013,147.319123 1298.21984,142.350586 1285.1563,142.350586 C1271.31117,142.350586 1260.09009,147.151645 1251.49272,156.753906 C1242.89535,166.356168 1238.59672,178.972904 1238.59672,194.604492 C1238.59672,209.901118 1242.89535,222.517854 1251.49272,232.455078 C1259.97844,242.168994 1271.14369,247.025879 1284.98881,247.025879 C1298.05236,247.025879 1308.82683,242.113168 1317.31255,232.287598 C1326.02157,222.462028 1330.37602,210.180249 1330.37602,195.441895 Z M1545.86334,203.313477 L1428.96197,203.313477 C1429.96686,216.711981 1434.32131,227.374798 1442.02545,235.302246 C1449.72959,243.11804 1459.61083,247.025879 1471.66949,247.025879 C1481.04844,247.025879 1488.80829,244.792828 1494.94927,240.32666 C1500.9786,235.860492 1507.84523,227.598205 1515.54937,215.539551 L1547.37066,233.29248 C1542.45788,241.666546 1537.26603,248.840221 1531.79498,254.813721 C1526.32392,260.787221 1520.46216,265.699932 1514.20953,269.552002 C1507.95689,273.404072 1501.20191,276.223298 1493.94439,278.009766 C1486.68687,279.796233 1478.81536,280.689453 1470.32964,280.689453 C1445.98903,280.689453 1426.44984,272.873776 1411.71148,257.242188 C1396.97313,241.498945 1389.60406,220.619922 1389.60406,194.604492 C1389.60406,168.812371 1396.74982,147.933348 1411.04156,131.966797 C1425.44495,116.223554 1444.53753,108.352051 1468.31988,108.352051 C1492.32553,108.352051 1511.30646,116.000249 1525.26324,131.296875 C1539.10836,146.481847 1546.03082,167.528349 1546.03082,194.437012 L1545.86334,203.313477 Z M1507.17535,172.49707 C1501.9276,152.399314 1489.25504,142.350586 1469.15728,142.350586 C1464.57946,142.350586 1460.28084,143.048414 1456.26129,144.444092 C1452.24173,145.839769 1448.58511,147.849515 1445.29131,150.473389 C1441.99752,153.097262 1439.17829,156.251446 1436.83355,159.936035 C1434.48881,163.620624 1432.70237,167.807594 1431.47418,172.49707 L1507.17535,172.49707 Z" id="Jetscape" fill="#000000"></path>
                <path d="M282.588793,146.33639 C282.654392,144.916041 282.697173,143.489988 282.697173,142.052527 C282.697173,141.804393 282.680061,141.561964 282.680061,141.310979 C282.409111,89.6736045 254.390024,44.6274463 212.777801,20.2647589 C212.569597,20.1392663 212.36995,20.0109215 212.164598,19.888281 C211.953542,19.7656404 211.736782,19.6658167 211.525727,19.5460283 C190.913558,7.7611273 167.072806,0.993080349 141.632023,0.993080349 C116.225465,0.993080349 92.4103818,7.73831045 71.8210304,19.4975425 C71.5814535,19.6315914 71.3361724,19.754232 71.0994476,19.888281 C70.9140608,19.9995131 70.7400823,20.1164494 70.5546954,20.2276815 C28.7085998,44.6958968 0.575428694,90.0728993 0.575428694,142.052527 C0.575428694,194.017894 28.6914872,239.38634 70.5261744,263.860259 C70.7201176,263.977196 70.9055045,264.099836 71.1022998,264.21392 C71.3019472,264.328005 71.5072988,264.427828 71.7069462,264.541912 C92.3248187,276.33537 116.182683,283.111973 141.634875,283.111973 C167.038581,283.111973 190.856516,276.363891 211.443015,264.610363 C211.685444,264.476314 211.930726,264.353673 212.16745,264.21392 C212.352837,264.111244 212.526816,263.988604 212.712202,263.880224 C253.403195,240.085106 281.085734,196.516338 282.588793,146.33639 Z M175.355321,251.918492 C167.115588,250.167299 159.007051,247.155476 151.320626,242.714747 C112.195439,220.12607 98.6365287,170.279817 120.760313,131.012025 C119.020529,134.306207 118.016587,138.059579 118.016587,142.049675 C118.016587,146.051179 119.026233,149.824515 120.785982,153.130105 C120.777426,153.115845 120.771721,153.101584 120.760313,153.090176 C119.873308,151.510109 119.054754,149.915782 118.276129,148.307195 C121.484748,190.849204 156.993465,224.387116 200.354028,224.387116 C209.178443,224.387116 217.66631,222.986732 225.635094,220.41128 C212.087591,234.942759 194.823795,245.954739 175.355321,251.918492 Z M253.605695,167.832711 C247.975638,174.067414 241.32738,179.571978 233.652363,184.001298 C194.276191,206.738285 143.922264,193.242121 121.185277,153.863097 C121.125383,153.751864 121.06834,153.646337 121.008446,153.535104 C125.047028,160.773749 132.767678,165.670814 141.634875,165.670814 C150.51348,165.670814 158.242687,160.76234 162.272712,153.512288 C162.207114,153.632076 162.150072,153.74616 162.084473,153.863097 C162.021727,153.968625 161.953276,154.077005 161.89053,154.182532 C161.807819,154.330842 161.719404,154.464891 161.628136,154.604644 C160.709758,156.164746 159.740042,157.67351 158.730397,159.150901 C193.971016,135.096241 205.256798,87.583011 183.583646,50.0293346 C179.16003,42.3771348 173.686839,35.7174679 167.474953,30.0959675 C187.459658,34.6878577 205.453593,44.484841 219.950847,58.0009701 C222.532003,65.9868662 223.972316,74.4832893 223.972316,83.3305213 C223.972316,128.804495 187.105997,165.667962 141.634875,165.667962 C141.509382,165.66511 141.381038,165.656554 141.255545,165.656554 C141.087271,165.656554 140.924701,165.65085 140.759279,165.645145 C138.953896,165.622329 137.159921,165.539618 135.377355,165.408421 C173.823741,183.901474 220.61824,169.9176 242.297095,132.366776 C246.729268,124.697463 249.763908,116.608891 251.515101,108.389122 C254.77791,119.038885 256.540512,130.336076 256.540512,142.052527 C256.543364,150.916871 255.505197,159.538787 253.605695,167.832711 Z M164.990769,135.797859 C161.787854,93.2501451 126.279138,59.7179378 82.9128697,59.7179378 C74.0913066,59.7179378 65.6005878,61.1183217 57.6346564,63.688069 C71.1850108,49.1679986 88.4431027,38.1560183 107.914429,32.1837089 C116.154162,33.9377539 124.262699,36.9495776 131.951976,41.3903062 C171.085719,63.9789838 184.641778,113.833792 162.506585,153.104436 C164.249222,149.810254 165.256015,146.051179 165.256015,142.055379 C165.250311,139.947673 165.144783,137.862783 164.990769,135.797859 Z M165.079184,139.325914 C165.050663,139.066372 165.002177,138.815387 164.9651,138.555845 C164.999325,138.815387 165.050663,139.066372 165.079184,139.325914 Z M164.602883,136.630674 C164.540136,136.376836 164.471686,136.125851 164.406087,135.872014 C164.471686,136.125851 164.537284,136.376836 164.602883,136.630674 Z M163.784328,133.938286 C163.721582,133.750047 163.653131,133.558956 163.578977,133.373569 C163.653131,133.558956 163.71873,133.750047 163.784328,133.938286 Z M162.515141,131.029138 C162.506585,131.020582 162.506585,131.014877 162.500881,131.009173 C162.500881,131.009173 162.500881,131.014877 162.506585,131.014877 C162.506585,131.01773 162.506585,131.020582 162.515141,131.029138 Z M29.6669074,116.272343 C35.294112,110.034787 41.9452226,104.535928 49.6088308,100.109459 C88.9935591,77.3696203 139.347486,90.8657847 162.084473,130.241957 C162.144367,130.353189 162.20141,130.470125 162.267008,130.575653 C162.267008,130.581357 162.267008,130.581357 162.272712,130.581357 C158.236983,123.342713 150.51348,118.437091 141.634875,118.437091 C132.759122,118.437091 125.03562,123.339861 121.002742,130.575653 C121.06834,130.470125 121.119678,130.353189 121.185277,130.241957 C121.245171,130.136429 121.319326,130.030901 121.37922,129.919669 C121.467635,129.779916 121.553198,129.63731 121.641614,129.497557 C122.559992,127.94316 123.529708,126.434396 124.539353,124.957005 C89.2987345,149.003108 78.0158041,196.524894 99.6918078,234.072867 C104.106868,241.730771 109.577206,248.390438 115.794797,254.009086 C95.8072398,249.414344 77.8133046,239.614508 63.316051,226.098379 C60.7348953,218.118187 59.3002861,209.618912 59.3002861,200.77168 C59.297434,155.30341 96.1609009,118.439943 141.634875,118.439943 C141.76322,118.439943 141.888712,118.448499 142.017057,118.448499 C142.185331,118.451352 142.345049,118.457056 142.510471,118.459908 C144.321559,118.479873 146.112681,118.568288 147.892395,118.699485 C109.448862,100.200727 62.6515104,114.187453 40.9726546,151.738278 C36.5433343,159.410442 33.5086938,167.499014 31.7489446,175.713079 C28.4918398,165.06902 26.7263863,153.763273 26.7263863,142.052527 C26.7263863,133.188182 27.7617007,124.563414 29.6669074,116.272343 Z" id="Shape" fill="#FF0000" fill-rule="nonzero"></path>
            </g>
        </g>
    </g>
</svg>