<?xml version="1.0" encoding="UTF-8"?>
<svg width="88px" height="67px" viewBox="0 0 88 67" version="1.1" xmlns="http://www.w3.org/2000/svg" xmlns:xlink="http://www.w3.org/1999/xlink">
    <!-- Generator: Sketch 43.1 (39012) - http://www.bohemiancoding.com/sketch -->
    <title>Shape</title>
    <desc>Created with Sketch.</desc>
    <defs></defs>
    <g id="Plan" stroke="none" stroke-width="1" fill="none" fill-rule="evenodd">
        <g id="Login" transform="translate(-941.000000, -855.000000)" fill-rule="nonzero" fill="#6C6C6C">
            <path d="M1027.28216,862.257 L1027.26816,862.246 C1027.88716,861.481 1028.27316,860.519 1028.27316,859.458 C1028.27316,856.996 1026.27716,855 1023.81516,855 C1022.35416,855 1021.06816,855.713 1020.25516,856.799 L1020.24716,856.793 L972.670164,900.595 L950.927164,889.382 C950.809164,889.315 950.688164,889.255 950.565164,889.195 L950.451164,889.136 L950.408164,889.119 C950.224164,889.036 950.035164,888.963 949.842164,888.898 L949.770164,888.87 L949.770164,888.872 C949.171164,888.679 948.533164,888.573 947.870164,888.573 C944.441164,888.573 941.662164,891.353 941.662164,894.781 C941.662164,896.708 942.540164,898.43 943.918164,899.569 L943.918164,899.569 L943.919164,899.57 C943.920164,899.571 943.921164,899.572 943.923164,899.573 L967.310164,919.081 C967.757164,919.534 968.246164,919.944 968.774164,920.302 L968.779164,920.307 L968.779164,920.307 C970.327164,921.355 972.193164,921.968 974.203164,921.968 C976.869164,921.968 979.283164,920.89 981.034164,919.148 L981.055164,919.168 L981.351164,918.804 C981.612164,918.519 981.856164,918.22 982.082164,917.904 L1027.28216,862.257 Z" id="Shape"></path>
        </g>
    </g>
</svg>